<svg version="1" xmlns="http://www.w3.org/2000/svg" width="346.667" height="346.667" viewBox="0 0 260.000000 260.000000"><path d="M118.5 27.1c-14.2 2-20.8 4-33 10C62.3 48.4 45.5 66 35 89.9c-3.6 8.3-3.4 7.6-6 19.6-1.9 8.4-2 12.8-2.1 64V232l.1 3.5 56.3-.1c30.9 0 58.7-.4 61.7-.8 45.9-6.4 82.2-42.1 89.6-88.2.9-5.9 1.1-23.3.3-28.4-.4-2.5-1.1-6.2-1.4-8.4-2-11.8-10.6-30.8-18.8-41.6-6.3-8.2-17.1-18.5-24.8-23.5-12.4-8.3-29.6-15.2-42.7-17-6.8-1-23.3-1.2-28.7-.4zm24.1 53c18.6 4.5 34 19.6 38.9 38 3 11.2 1.4 25.4-4.3 36.9-3.7 7.5-14.2 18-21.9 21.9-10.9 5.5-15.7 6.1-47.6 6.1H78.8l.4-31.3c.4-29.7.5-31.5 2.7-37.7 1.3-3.6 3-7.2 3.7-8.1.8-.8 1.4-2 1.4-2.7 0-2 13.4-14.8 18.4-17.5 10.8-6 26.2-8.3 37.2-5.6z"/></svg>