<svg xmlns="http://www.w3.org/2000/svg" width="29.924" height="29.924" viewBox="0 0 29.924 29.924"><defs><style>.a{fill:#fff;}</style></defs><g transform="translate(0)"><path class="a" d="M14.962,0A14.962,14.962,0,1,0,29.924,14.962,14.979,14.979,0,0,0,14.962,0ZM28.054,14.964a21.546,21.546,0,0,0-9.539-.466c-.4-.921-.811-1.809-1.227-2.656a19.59,19.59,0,0,0,7.686-5.3,13.03,13.03,0,0,1,3.081,8.421ZM23.67,5.212a17.7,17.7,0,0,1-7.247,4.932A64.977,64.977,0,0,0,11.58,2.329,12.929,12.929,0,0,1,23.67,5.212ZM9.724,2.972a63.683,63.683,0,0,1,4.892,7.806A41.274,41.274,0,0,1,2.125,12.406a13.131,13.131,0,0,1,7.6-9.434ZM1.87,14.962c0-.231.024-.456.035-.684.35.012.782.021,1.29.021a41.266,41.266,0,0,0,12.3-1.811q.586,1.182,1.157,2.465A20.993,20.993,0,0,0,5.342,23.81,13.025,13.025,0,0,1,1.87,14.962ZM6.714,25.116A18.432,18.432,0,0,1,17.368,16.64a48.6,48.6,0,0,1,2.967,10.248A13.016,13.016,0,0,1,6.714,25.116Zm15.359.823a50.917,50.917,0,0,0-2.832-9.7,20.409,20.409,0,0,1,8.659.624A13.1,13.1,0,0,1,22.073,25.939Z" transform="translate(0 0)"/></g></svg>