<svg xmlns="http://www.w3.org/2000/svg" width="29.516" height="29.521" viewBox="0 0 29.516 29.521"><defs><style>.a{fill:#fff;}</style></defs><g transform="translate(0)"><path class="a" d="M29.889,8.679A10.787,10.787,0,0,0,29.2,5.1,7.562,7.562,0,0,0,24.884.779,10.815,10.815,0,0,0,21.3.092C19.722.017,19.22,0,15.212,0S10.7.017,9.128.087A10.79,10.79,0,0,0,5.547.773,7.2,7.2,0,0,0,2.928,2.48a7.268,7.268,0,0,0-1.7,2.613A10.816,10.816,0,0,0,.541,8.674c-.075,1.58-.092,2.082-.092,6.09s.017,4.51.087,6.084a10.787,10.787,0,0,0,.686,3.581,7.561,7.561,0,0,0,4.319,4.319,10.816,10.816,0,0,0,3.581.686c1.574.069,2.076.087,6.084.087s4.51-.017,6.084-.087a10.785,10.785,0,0,0,3.581-.686,7.551,7.551,0,0,0,4.32-4.319,10.823,10.823,0,0,0,.686-3.581c.069-1.574.087-2.076.087-6.084s-.006-4.51-.075-6.084ZM27.231,20.733a8.092,8.092,0,0,1-.508,2.739,4.9,4.9,0,0,1-2.8,2.8,8.12,8.12,0,0,1-2.739.507c-1.557.069-2.024.087-5.963.087s-4.412-.017-5.963-.087a8.087,8.087,0,0,1-2.739-.507,4.543,4.543,0,0,1-1.7-1.1,4.59,4.59,0,0,1-1.1-1.7,8.122,8.122,0,0,1-.507-2.739c-.069-1.557-.087-2.024-.087-5.963s.017-4.412.087-5.963a8.087,8.087,0,0,1,.507-2.739,4.487,4.487,0,0,1,1.107-1.7,4.583,4.583,0,0,1,1.7-1.1,8.126,8.126,0,0,1,2.739-.508c1.557-.069,2.024-.087,5.963-.087s4.412.017,5.963.087a8.092,8.092,0,0,1,2.739.508,4.539,4.539,0,0,1,1.7,1.1,4.589,4.589,0,0,1,1.1,1.7,8.125,8.125,0,0,1,.508,2.739c.069,1.557.087,2.024.087,5.963s-.017,4.4-.087,5.957Zm0,0" transform="translate(-0.449 0)"/><path class="a" d="M132.533,124.5a7.584,7.584,0,1,0,7.584,7.584A7.586,7.586,0,0,0,132.533,124.5Zm0,12.5a4.919,4.919,0,1,1,4.919-4.919A4.92,4.92,0,0,1,132.533,137Zm0,0" transform="translate(-117.769 -117.32)"/><path class="a" d="M365.991,90.372a1.771,1.771,0,1,1-1.771-1.77A1.771,1.771,0,0,1,365.991,90.372Zm0,0" transform="translate(-341.573 -83.492)"/></g></svg>