<?xml version="1.0" encoding="utf-8"?>
<!-- Generator: Adobe Illustrator 23.0.3, SVG Export Plug-In . SVG Version: 6.00 Build 0)  -->
<svg version="1.1" id="Layer_1" xmlns="http://www.w3.org/2000/svg" xmlns:xlink="http://www.w3.org/1999/xlink" x="0px" y="0px"
	 viewBox="0 0 1445 490" style="enable-background:new 0 0 1445 490;" xml:space="preserve">
<style type="text/css">
	.st0{fill:#004FFF;}
</style>
<g>
	<g>
		<g>
			<path d="M130,65c-23.68,0-45.88,6.33-65,17.39V0H0v325h130c48.12,0,90.13-26.14,112.61-65c11.06-19.12,17.39-41.32,17.39-65
				C260,123.2,201.8,65,130,65z M65,260v-65c0-35.9,29.1-65,65-65s65,29.1,65,65c0,35.9-29.1,65-65,65H65z"/>
		</g>
		<g>
			<path d="M812,65v130c0,48.12-26.14,90.13-65,112.61C727.88,318.67,705.68,325,682,325s-45.88-6.33-65-17.39
				c-38.72-22.4-64.82-64.2-65-112.11V65h65v130.5h0.01c0.26,35.67,29.26,64.5,64.99,64.5s64.73-28.83,64.99-64.5H747V65H812z"/>
		</g>
		<g>
			<polygon points="1088,65 1088,130 990,130 990,325 925,325 925,130 828,130 828,65 			"/>
		</g>
		<g>
			<rect x="1104" y="65" width="65" height="260"/>
		</g>
		<g>
			<path d="M1315,65c-48.12,0-90.13,26.14-112.61,65c-11.06,19.12-17.39,41.32-17.39,65c0,71.8,58.2,130,130,130
				c23.68,0,45.88-6.33,65-17.39V390h65V65H1315z M1315,260c-35.9,0-65-29.1-65-65c0-35.9,29.1-65,65-65h65v65
				C1380,230.9,1350.9,260,1315,260z"/>
		</g>
		<g>
			<path d="M405.5,66.5c-71.8,0-130,58.2-130,130s58.2,130,130,130s130-58.2,130-130S477.3,66.5,405.5,66.5z M405.5,261.5
				c-35.9,0-65-29.1-65-65c0-35.9,29.1-65,65-65s65,29.1,65,65C470.5,232.4,441.4,261.5,405.5,261.5z"/>
		</g>
	</g>
	<g>
		<g>
			<path class="st0" d="M15.46,486.92C8.9,484.73,3.75,481.9,0,478.42l4.95-10.44c3.57,3.21,8.14,5.82,13.72,7.83
				c5.57,2.01,11.31,3.01,17.19,3.01c7.76,0,13.56-1.31,17.4-3.95c3.83-2.63,5.75-6.13,5.75-10.5c0-3.21-1.05-5.82-3.15-7.83
				c-2.1-2.01-4.68-3.55-7.76-4.62c-3.08-1.07-7.43-2.27-13.05-3.61c-7.05-1.7-12.73-3.39-17.06-5.09
				c-4.33-1.69-8.03-4.3-11.11-7.83c-3.08-3.52-4.62-8.27-4.62-14.25c0-4.99,1.32-9.5,3.95-13.52c2.63-4.01,6.62-7.22,11.98-9.63
				c5.35-2.41,12-3.62,19.94-3.62c5.53,0,10.97,0.72,16.33,2.14c5.35,1.43,9.94,3.48,13.78,6.16l-4.42,10.7
				c-3.93-2.5-8.12-4.39-12.58-5.68s-8.83-1.94-13.11-1.94c-7.59,0-13.27,1.38-17.06,4.15c-3.79,2.77-5.69,6.33-5.69,10.71
				c0,3.21,1.07,5.82,3.21,7.83c2.14,2.01,4.79,3.57,7.96,4.68c3.17,1.12,7.47,2.3,12.92,3.55c7.04,1.7,12.71,3.39,16.99,5.08
				c4.28,1.7,7.96,4.28,11.04,7.76c3.08,3.48,4.62,8.16,4.62,14.05c0,4.91-1.34,9.39-4.02,13.45c-2.68,4.06-6.74,7.27-12.17,9.63
				c-5.44,2.36-12.13,3.55-20.07,3.55C28.81,490.2,22.01,489.1,15.46,486.92z"/>
			<path class="st0" d="M175.83,407.1h-32.12v-11.64h77.48v11.64h-32.12v82.03h-13.25V407.1z"/>
			<path class="st0" d="M310.58,479.49c-6.96-7.13-10.44-17.4-10.44-30.77v-53.26h13.38v52.73c0,20.07,8.78,30.11,26.36,30.11
				c8.57,0,15.12-2.47,19.67-7.43c4.55-4.95,6.83-12.51,6.83-22.68v-52.73h12.98v53.26c0,13.47-3.48,23.75-10.44,30.84
				c-6.96,7.09-16.68,10.64-29.17,10.64C327.27,490.2,317.54,486.63,310.58,479.49z"/>
			<path class="st0" d="M473.71,395.45h39.47c9.9,0,18.69,1.96,26.36,5.89c7.67,3.93,13.62,9.43,17.86,16.52
				c4.24,7.09,6.36,15.23,6.36,24.42c0,9.19-2.12,17.33-6.36,24.42c-4.24,7.09-10.19,12.6-17.86,16.53
				c-7.67,3.93-16.46,5.89-26.36,5.89h-39.47V395.45z M512.38,477.48c7.58,0,14.25-1.47,20.01-4.42s10.19-7.07,13.31-12.38
				c3.12-5.31,4.68-11.44,4.68-18.4c0-6.96-1.56-13.09-4.68-18.4c-3.12-5.31-7.56-9.43-13.31-12.38
				c-5.75-2.94-12.42-4.42-20.01-4.42h-25.29v70.39H512.38z"/>
			<path class="st0" d="M651.14,395.45h13.38v93.67h-13.38V395.45z"/>
			<path class="st0" d="M776.26,483.97c-7.59-4.15-13.54-9.88-17.87-17.19c-4.33-7.31-6.49-15.48-6.49-24.49
				c0-9.01,2.16-17.17,6.49-24.49c4.33-7.31,10.28-13.05,17.87-17.2c7.58-4.15,16.1-6.22,25.56-6.22c9.37,0,17.84,2.08,25.43,6.22
				c7.58,4.15,13.52,9.86,17.8,17.13c4.28,7.27,6.42,15.46,6.42,24.56c0,9.1-2.14,17.29-6.42,24.56
				c-4.28,7.27-10.21,12.98-17.8,17.13c-7.58,4.15-16.06,6.22-25.43,6.22C792.36,490.2,783.84,488.12,776.26,483.97z M820.35,473.6
				c5.49-3.12,9.81-7.43,12.98-12.91c3.16-5.49,4.75-11.62,4.75-18.4c0-6.78-1.59-12.91-4.75-18.4c-3.17-5.49-7.5-9.79-12.98-12.92
				c-5.49-3.12-11.66-4.68-18.53-4.68s-13.09,1.56-18.67,4.68c-5.58,3.12-9.95,7.43-13.11,12.92c-3.17,5.49-4.75,11.62-4.75,18.4
				c0,6.78,1.58,12.91,4.75,18.4c3.16,5.49,7.54,9.79,13.11,12.91c5.57,3.12,11.8,4.68,18.67,4.68S814.86,476.73,820.35,473.6z"/>
		</g>
	</g>
</g>
</svg>
