<?xml version="1.0" encoding="utf-8"?>
<!-- Generator: Adobe Illustrator 23.0.3, SVG Export Plug-In . SVG Version: 6.00 Build 0)  -->
<svg version="1.1" id="Layer_1" xmlns="http://www.w3.org/2000/svg" xmlns:xlink="http://www.w3.org/1999/xlink" x="0px" y="0px"
	 viewBox="0 0 1445 490" style="enable-background:new 0 0 1445 490;" xml:space="preserve">
<style type="text/css">
	.st0{fill:#FFFFFF;}
</style>
<g>
	<g>
		<g>
			<path class="st0" d="M130,65c-23.7,0-45.9,6.3-65,17.4V0H0v325h130c48.1,0,90.1-26.1,112.6-65c11.1-19.1,17.4-41.3,17.4-65
				C260,123.2,201.8,65,130,65z M65,260v-65c0-35.9,29.1-65,65-65s65,29.1,65,65s-29.1,65-65,65H65z"/>
		</g>
		<g>
			<path class="st0" d="M812,65v130c0,48.1-26.1,90.1-65,112.6c-19.1,11.1-41.3,17.4-65,17.4s-45.9-6.3-65-17.4
				c-38.7-22.4-64.8-64.2-65-112.1V65h65v130.5h0c0.3,35.7,29.3,64.5,65,64.5s64.7-28.8,65-64.5h0V65H812z"/>
		</g>
		<g>
			<polygon class="st0" points="1088,65 1088,130 990,130 990,325 925,325 925,130 828,130 828,65 			"/>
		</g>
		<g>
			<rect x="1104" y="65" class="st0" width="65" height="260"/>
		</g>
		<g>
			<path class="st0" d="M1315,65c-48.1,0-90.1,26.1-112.6,65c-11.1,19.1-17.4,41.3-17.4,65c0,71.8,58.2,130,130,130
				c23.7,0,45.9-6.3,65-17.4V390h65V65H1315z M1315,260c-35.9,0-65-29.1-65-65s29.1-65,65-65h65v65C1380,230.9,1350.9,260,1315,260z
				"/>
		</g>
		<g>
			<path class="st0" d="M405.5,66.5c-71.8,0-130,58.2-130,130s58.2,130,130,130s130-58.2,130-130S477.3,66.5,405.5,66.5z
				 M405.5,261.5c-35.9,0-65-29.1-65-65s29.1-65,65-65s65,29.1,65,65S441.4,261.5,405.5,261.5z"/>
		</g>
	</g>
	<g>
		<g>
			<path class="st0" d="M15.5,486.9c-6.6-2.2-11.7-5-15.5-8.5L4.9,468c3.6,3.2,8.1,5.8,13.7,7.8c5.6,2,11.3,3,17.2,3
				c7.8,0,13.6-1.3,17.4-4c3.8-2.6,5.8-6.1,5.8-10.5c0-3.2-1-5.8-3.2-7.8c-2.1-2-4.7-3.5-7.8-4.6s-7.4-2.3-13-3.6
				c-7-1.7-12.7-3.4-17.1-5.1c-4.3-1.7-8-4.3-11.1-7.8c-3.1-3.5-4.6-8.3-4.6-14.3c0-5,1.3-9.5,3.9-13.5c2.6-4,6.6-7.2,12-9.6
				c5.4-2.4,12-3.6,19.9-3.6c5.5,0,11,0.7,16.3,2.1c5.3,1.4,9.9,3.5,13.8,6.2l-4.4,10.7c-3.9-2.5-8.1-4.4-12.6-5.7
				s-8.8-1.9-13.1-1.9c-7.6,0-13.3,1.4-17.1,4.1s-5.7,6.3-5.7,10.7c0,3.2,1.1,5.8,3.2,7.8c2.1,2,4.8,3.6,8,4.7
				c3.2,1.1,7.5,2.3,12.9,3.5c7,1.7,12.7,3.4,17,5.1c4.3,1.7,8,4.3,11,7.8s4.6,8.2,4.6,14c0,4.9-1.3,9.4-4,13.5s-6.7,7.3-12.2,9.6
				c-5.4,2.4-12.1,3.5-20.1,3.5C28.8,490.2,22,489.1,15.5,486.9z"/>
			<path class="st0" d="M175.8,407.1h-32.1v-11.6h77.5v11.6h-32.1v82h-13.3L175.8,407.1L175.8,407.1z"/>
			<path class="st0" d="M310.6,479.5c-7-7.1-10.4-17.4-10.4-30.8v-53.3h13.4v52.7c0,20.1,8.8,30.1,26.4,30.1
				c8.6,0,15.1-2.5,19.7-7.4c4.5-5,6.8-12.5,6.8-22.7v-52.7h13v53.3c0,13.5-3.5,23.8-10.4,30.8s-16.7,10.6-29.2,10.6
				C327.3,490.2,317.5,486.6,310.6,479.5z"/>
			<path class="st0" d="M473.7,395.5h39.5c9.9,0,18.7,2,26.4,5.9c7.7,3.9,13.6,9.4,17.9,16.5s6.4,15.2,6.4,24.4s-2.1,17.3-6.4,24.4
				c-4.2,7.1-10.2,12.6-17.9,16.5s-16.5,5.9-26.4,5.9h-39.5V395.5z M512.4,477.5c7.6,0,14.3-1.5,20-4.4s10.2-7.1,13.3-12.4
				s4.7-11.4,4.7-18.4s-1.6-13.1-4.7-18.4s-7.6-9.4-13.3-12.4c-5.8-2.9-12.4-4.4-20-4.4h-25.3v70.4L512.4,477.5L512.4,477.5z"/>
			<path class="st0" d="M651.1,395.5h13.4v93.7h-13.4V395.5z"/>
			<path class="st0" d="M776.3,484c-7.6-4.1-13.5-9.9-17.9-17.2s-6.5-15.5-6.5-24.5c0-9,2.2-17.2,6.5-24.5
				c4.3-7.3,10.3-13,17.9-17.2c7.6-4.1,16.1-6.2,25.6-6.2c9.4,0,17.8,2.1,25.4,6.2c7.6,4.1,13.5,9.9,17.8,17.1
				c4.3,7.3,6.4,15.5,6.4,24.6s-2.1,17.3-6.4,24.6c-4.3,7.3-10.2,13-17.8,17.1c-7.6,4.1-16.1,6.2-25.4,6.2
				C792.4,490.2,783.8,488.1,776.3,484z M820.3,473.6c5.5-3.1,9.8-7.4,13-12.9c3.2-5.5,4.8-11.6,4.8-18.4s-1.6-12.9-4.8-18.4
				c-3.2-5.5-7.5-9.8-13-12.9c-5.5-3.1-11.7-4.7-18.5-4.7s-13.1,1.6-18.7,4.7c-5.6,3.1-10,7.4-13.1,12.9c-3.2,5.5-4.8,11.6-4.8,18.4
				s1.6,12.9,4.8,18.4c3.2,5.5,7.5,9.8,13.1,12.9s11.8,4.7,18.7,4.7S814.9,476.7,820.3,473.6z"/>
		</g>
	</g>
</g>
</svg>
